# xmcd CD Database Entry
#
# Track frame offsets:
# 150
# 23038
# 53232
# 71214
# 93062
# 120672
# 147719
# 179065
# 203667
# 221841
# 239339
# 260736
# 276620
# 295472
# 314285
#
# Disc length: 4408 seconds
#
# Revision: 2
# Processed by: cddbd v1.4PL0 Copyright (c) Steve Scherf et al.
# Submitted via: tcd 2.0b
#
DISCID=fc11360f
DTITLE=I've Sounds
DYEAR=1900
DGENRE=
TTITLE0=No Title
TTITLE1=Velocity of Sound
TTITLE2=I can't stop my cry
TTITLE3=Dance
TTITLE4=Trance1
TTITLE5=Trance2
TTITLE6=Shift by Lia
TTITLE7=Shooting Star
TTITLE8=Aki1
TTITLE9=トラック 10
TTITLE10=Grow Up
TTITLE11=Velocity of Sound S-version
TTITLE12=aiko あした
TTITLE13=ヘミソフィア
TTITLE14=夢はなにいろ？
EXTD=
EXTT0=
EXTT1=
EXTT2=
EXTT3=
EXTT4=
EXTT5=
EXTT6=
EXTT7=
EXTT8=
EXTT9=
EXTT10=
EXTT11=
EXTT12=
EXTT13=
EXTT14=
PLAYORDER=
